<svg xmlns="http://www.w3.org/2000/svg" viewBox="0 0 672 204"><defs><style>.a{fill:#fff;}.b{fill:#acc435;}</style></defs><path class="a" d="M69.69,203.39a9,9,0,0,1-9-9h0a9,9,0,0,1-8.87-7.46,19.62,19.62,0,0,1-12.06-9.71A10.49,10.49,0,0,1,39.83,159,19.45,19.45,0,0,1,42,155.78v-2.66a9.24,9.24,0,0,1,.19-1.83L32,141.06a15,15,0,0,1-1.47-29.66,10.92,10.92,0,0,1-1.36-1.51,10.41,10.41,0,0,1-1.64-9.28l3.86-12.85a15.74,15.74,0,0,1-6.84-9.25L9.46,77A10.47,10.47,0,0,1,0,66.55V47.69A10.47,10.47,0,0,1,9.46,37.24l15-1.5a15.53,15.53,0,0,1,6.37-9L26.43,14.09a10.51,10.51,0,0,1,9.92-14h41.3a10.5,10.5,0,0,1,9.91,14L83.13,26.76A15.57,15.57,0,0,1,89.57,36l15.22,1.88A10.51,10.51,0,0,1,114,48.3V65.86a10.52,10.52,0,0,1-9.18,10.42L89.57,78.21a15.71,15.71,0,0,1-6.92,9.55l3.85,12.85a10.49,10.49,0,0,1-10.06,13.51H59L48.31,124.78q.06.68.06,1.35c0,.52,0,1-.08,1.55l16.64,16.65A9,9,0,0,1,72,153.12v2.56A19.3,19.3,0,0,1,74.24,159a10.52,10.52,0,0,1,.65,17.81l-.14.55L77,179.6a9,9,0,0,1,.21,12.52v11.27Z"/><path d="M104.05,43.83,84,41.36V39.65a9.56,9.56,0,0,0-8.43-9.46L81.9,12.11a4.5,4.5,0,0,0-4.25-6H36.35a4.5,4.5,0,0,0-4.25,6l6.32,18.08A9.57,9.57,0,0,0,30,39.65v1.57l-19.95,2A4.5,4.5,0,0,0,6,47.69V66.55A4.49,4.49,0,0,0,10.05,71l20,2v1.57a9.56,9.56,0,0,0,8.71,9.49l-5.47,18.25a4.5,4.5,0,0,0,4.31,5.79h6.2l-9.11,9.11a9,9,0,1,0-1.27,17.89,7.19,7.19,0,0,0,1.05-.09l15.36,15.36A3,3,0,0,0,48,153.12v5a13.69,13.69,0,0,0-3.72,5.53,4.49,4.49,0,0,0,0,8.86A13.49,13.49,0,0,0,57,181.63a13,13,0,0,0,4.31-.72l3,3H57.69v1.5a3,3,0,0,0,3,3h2.82l3.18,3.18v2.82a3,3,0,0,0,3,3h1.5v-7.75l1.49-1.48.06-.06a3,3,0,0,0,0-4.25l-7.4-7.38,0,0L63.83,175l0,0a2.39,2.39,0,0,0-.59-.36,2.65,2.65,0,0,0-1.14-.24,3.06,3.06,0,0,0-1.48.39,6.51,6.51,0,0,1-.71.33,7.44,7.44,0,0,1-2.88.58,8.26,8.26,0,0,1-1-.07h0a7.51,7.51,0,0,1-6.45-7.68A7.6,7.6,0,0,1,57,160.63a7.49,7.49,0,0,1,7.53,7.48h0a4.52,4.52,0,0,0,4.5,4.51,3.68,3.68,0,0,0,.75-.06h0a4.5,4.5,0,0,0,0-8.88,13.53,13.53,0,0,0-3.75-5.6v-5a3,3,0,0,0-3-3h-.76L41.67,129.55a8.91,8.91,0,0,0,.7-3.43,9.09,9.09,0,0,0-.63-3.26l14.74-14.74h20a4.5,4.5,0,0,0,4.31-5.79L75.29,84.08A9.56,9.56,0,0,0,84,74.59V72.86l20.07-2.53A4.5,4.5,0,0,0,108,65.86V48.3A4.5,4.5,0,0,0,104.05,43.83ZM30.37,126.12A3,3,0,0,1,32,123.47a3,3,0,0,1,1.39-.35,3,3,0,1,1,0,6,2.94,2.94,0,0,1-1.39-.33A3,3,0,0,1,30.37,126.12Zm10.13-90H57A21,21,0,0,0,36,57.06V40.62A4.52,4.52,0,0,1,40.5,36.12Zm16.5,6a15,15,0,1,1-15,15A15,15,0,0,1,57,42.12Zm16.5,36h-33a4.51,4.51,0,0,1-4.5-4.5V57.18A21,21,0,1,0,57,36.12H73.5a4.51,4.51,0,0,1,4.5,4.5v33A4.51,4.51,0,0,1,73.5,78.12Z"/><path class="a" d="M458.23,135.06a12.26,12.26,0,1,0,8.11,21.46,2.45,2.45,0,1,0-3.25-3.68,7.35,7.35,0,0,1-11.8-3.07H468a2.45,2.45,0,0,0,2.45-2.45A12.27,12.27,0,0,0,458.23,135.06Zm-6.94,9.81a7.35,7.35,0,0,1,13.87,0Z"/><path class="a" d="M517.06,152.84a7.36,7.36,0,1,1,0-11,2.45,2.45,0,1,0,3.24-3.68,12.26,12.26,0,1,0,0,18.4,2.45,2.45,0,1,0-3.24-3.68Z"/><path class="b" d="M350.3,137.51a2.45,2.45,0,0,0-2.45-2.45H338a12.26,12.26,0,1,0,7.36,22.07,2.45,2.45,0,1,0,4.9,0v-9.81a12.21,12.21,0,0,0-2.45-7.36A2.45,2.45,0,0,0,350.3,137.51ZM338,154.68a7.36,7.36,0,1,1,7.36-7.36A7.36,7.36,0,0,1,338,154.68Z"/><path class="a" d="M432.23,137.51a2.45,2.45,0,0,0-2.46-2.45H420a12.26,12.26,0,1,0,7.36,22.07,2.46,2.46,0,0,0,4.91,0v-9.81a12.22,12.22,0,0,0-2.46-7.36A2.46,2.46,0,0,0,432.23,137.51ZM420,154.68a7.36,7.36,0,1,1,7.36-7.36A7.37,7.37,0,0,1,420,154.68Z"/><path class="b" d="M380.23,135.06h2.45V132.6a2.45,2.45,0,0,1,4.9,0v24.53a2.45,2.45,0,0,1-4.9,0V140h-2.45a2.45,2.45,0,1,1,0-4.9Z"/><path class="a" d="M443.51,135.06h-2.45V132.6a2.46,2.46,0,0,0-4.91,0v24.53a2.46,2.46,0,0,0,4.91,0V140h2.45a2.45,2.45,0,0,0,0-4.9Z"/><path class="a" d="M402.79,159.58h0a2.45,2.45,0,0,1-2.45-2.45V132.6a2.46,2.46,0,0,1,4.91,0v24.53A2.45,2.45,0,0,1,402.79,159.58Z"/><path class="b" d="M366.49,135.06a12.26,12.26,0,0,0-12.26,12.26v9.81a2.45,2.45,0,1,0,4.9,0v-9.81a7.36,7.36,0,0,1,14.72,0v9.81a2.45,2.45,0,1,0,4.9,0v-9.81A12.26,12.26,0,0,0,366.49,135.06Z"/><path class="a" d="M485.21,135.06a12.26,12.26,0,0,0-12.27,12.26v9.81a2.46,2.46,0,0,0,4.91,0v-9.81a7.36,7.36,0,0,1,14.72,0v9.81a2.45,2.45,0,0,0,4.9,0v-9.81A12.26,12.26,0,0,0,485.21,135.06Z"/><path class="b" d="M394,137.51a2.45,2.45,0,0,0-2.45,2.45v17.17a2.46,2.46,0,0,0,4.91,0V140A2.46,2.46,0,0,0,394,137.51Z"/><path class="b" d="M394,135.06a2.46,2.46,0,1,0-2.45-2.46A2.46,2.46,0,0,0,394,135.06Z"/><path class="a" d="M548,137.51a2.46,2.46,0,0,0-4.91,0v9.81a7.36,7.36,0,1,1-14.71,0v-9.81a2.46,2.46,0,0,0-4.91,0v9.81a12.27,12.27,0,0,0,19.62,9.81v2.45a7.35,7.35,0,0,1-12.22,5.52,2.45,2.45,0,0,0-3.25,3.68,12.26,12.26,0,0,0,20.38-9.2V137.51Z"/><path class="a" d="M274.26,135.06a12.18,12.18,0,0,0-7.35,2.45V132.6a2.46,2.46,0,0,0-4.91,0v14.72a12.27,12.27,0,1,0,12.26-12.26Zm0,19.62a7.36,7.36,0,1,1,7.36-7.36A7.35,7.35,0,0,1,274.26,154.68Z"/><path class="a" d="M313.51,137.51a2.46,2.46,0,0,0-4.91,0v9.81a7.36,7.36,0,1,1-14.71,0v-9.81a2.46,2.46,0,0,0-4.91,0v9.81a12.27,12.27,0,0,0,19.62,9.81v2.45a7.35,7.35,0,0,1-12.22,5.52,2.45,2.45,0,0,0-3.25,3.68,12.26,12.26,0,0,0,20.38-9.2V137.51Z"/><path class="a" d="M172,98a28,28,0,1,1,22.1-45.18l6.31-4.91a36,36,0,1,0,0,44.19l-6.31-4.91A27.94,27.94,0,0,1,172,98Z"/><path class="a" d="M286,58a23.92,23.92,0,0,0-16,6.12V38h-8v68h8V99.88A24,24,0,1,0,286,58Zm0,40a16,16,0,1,1,16-16A16,16,0,0,1,286,98Z"/><path class="a" d="M446,42a28,28,0,0,1,22.1,10.82l6.31-4.91A36,36,0,1,0,472.82,94c.41-.45.8-.91,1.18-1.39V70H450v8h16V89.59A28,28,0,1,1,446,42Z"/><path class="a" d="M520,64.12a24,24,0,1,0,0,35.76V106h8V58h-8ZM504,98a16,16,0,1,1,16-16A16,16,0,0,1,504,98Z"/><path class="a" d="M340,58a24,24,0,1,0,18.94,38.73l-6.32-4.91A16,16,0,0,1,324.5,86h39.16a23.9,23.9,0,0,0,.34-4,23,23,0,0,0-.34-4A24,24,0,0,0,340,58ZM324.5,78a16,16,0,0,1,31,0Z"/><path class="a" d="M606,58a24,24,0,1,0,18.94,38.73l-6.32-4.91A16,16,0,0,1,590.5,86h39.16a23.9,23.9,0,0,0,.34-4,23,23,0,0,0-.34-4A24,24,0,0,0,606,58ZM590.5,78a16,16,0,0,1,31,0Z"/><path class="a" d="M540,58h-4v8h4v40h8V66h8V58h-8a8,8,0,0,1,8-8V42A16,16,0,0,0,540,58Z"/><path class="a" d="M564,58h-4v8h4v40h8V66h8V58h-8a8,8,0,0,1,8-8V42A16,16,0,0,0,564,58Z"/><path class="a" d="M378,62V58h-8v48h8V78a12,12,0,0,1,20.49-8.48l5.65-5.66A19.94,19.94,0,0,0,378,62Z"/><path class="a" d="M656,58a19.88,19.88,0,0,0-12,4V58h-8v48h8V78a12,12,0,0,1,20.49-8.48l5.65-5.66A19.94,19.94,0,0,0,656,58Z"/><path class="a" d="M246,82h0a16,16,0,0,1-32,0h0V58h-8V82h0a24,24,0,0,0,40,17.88V106h0a16,16,0,0,1-27.31,11.32L213,123a24,24,0,0,0,41-17h0V58h-8Z"/></svg>